
  <svg
    width="1000"
    height="1000"
    viewBox="0 0 1000 1000"
    xmlns="http://www.w3.org/2000/svg"
  >
    <defs>
      
      
      
      
      
      
      
      <clipPath id="shape">
        <path fill="currentColor" d="M831.5,591Q717,682,649.5,825Q582,968,469,859Q356,750,203,707Q50,664,84,512.5Q118,361,223.5,282Q329,203,453,132.5Q577,62,650,187.5Q723,313,834.5,406.5Q946,500,831.5,591Z"></path>
      </clipPath>
    </defs>
  
    

    <g  clip-path="url(#shape)">
      <path fill="#F2CB17" d="M831.5,591Q717,682,649.5,825Q582,968,469,859Q356,750,203,707Q50,664,84,512.5Q118,361,223.5,282Q329,203,453,132.5Q577,62,650,187.5Q723,313,834.5,406.5Q946,500,831.5,591Z" />
    </g>

    
  
  </svg>