<?xml version="1.0" encoding="iso-8859-1"?>
<!-- Generator: Adobe Illustrator 19.0.0, SVG Export Plug-In . SVG Version: 6.00 Build 0)  -->
<svg version="1.1" id="Layer_1" xmlns="http://www.w3.org/2000/svg" xmlns:xlink="http://www.w3.org/1999/xlink" x="0px" y="0px"
	 viewBox="0 0 495 495" style="enable-background:new 0 0 495 495;" xml:space="preserve">
<g>
	<path style="fill:#FFDA44;" d="M180,107.5c0-37.22,30.28-67.5,67.5-67.5S315,70.28,315,107.5v45.848
		c14.375,5.933,27.805,13.701,40,23.012V107.5C355,48.224,306.776,0,247.5,0S140,48.224,140,107.5v68.86
		c12.195-9.311,25.625-17.078,40-23.012V107.5z"/>
	<path style="fill:#FFA733;" d="M355,176.36c-12.195-9.311-25.625-17.078-40-23.012C294.179,144.754,271.386,140,247.5,140v170.088
		l40.05-40.05l28.285,28.284L247.5,366.656V495c97.87,0,177.5-79.63,177.5-177.5C425,260.007,397.513,208.819,355,176.36z"/>
	<path style="fill:#FFB655;" d="M235.052,379.104l-62.343-62.343l28.283-28.284l34.06,34.059l12.448-12.448V140
		c-23.886,0-46.679,4.754-67.5,13.348c-14.375,5.933-27.805,13.701-40,23.012c-42.513,32.459-70,83.648-70,141.14
		C70,415.37,149.63,495,247.5,495V366.656L235.052,379.104z"/>
	<polygon style="fill:#AA6100;" points="200.992,288.478 172.709,316.762 235.052,379.104 247.5,366.656 315.835,298.322 
		287.55,270.038 247.5,310.088 235.052,322.536 	"/>
</g>
<g>
</g>
<g>
</g>
<g>
</g>
<g>
</g>
<g>
</g>
<g>
</g>
<g>
</g>
<g>
</g>
<g>
</g>
<g>
</g>
<g>
</g>
<g>
</g>
<g>
</g>
<g>
</g>
<g>
</g>
</svg>
