<svg xmlns="http://www.w3.org/2000/svg" width="46" height="16.736" viewBox="0 0 46 16.736">
  <g id="Group_8283" data-name="Group 8283" opacity="0.9">
    <g id="Group_8138" data-name="Group 8138">
      <path id="Path_10162" data-name="Path 10162" d="M563.054,187.82a5.2,5.2,0,0,0-5.458-3.42c-.393-1.264-2.6-6.919-9.475-2.176-.545-1.685-3.654-9.949-10.546-4.148a10.027,10.027,0,0,0-1.319-4.026c-1.27-2.012-3.209-2.75-5.767-2.194a5.925,5.925,0,0,0-4.6,4.4,14.314,14.314,0,0,0-.279,6.062c-1.413.07-7.634.66-8.283,5.626l-.062.469h46Z" transform="translate(-517.267 -171.675)" fill="#fff"/>
    </g>
  </g>
</svg>
