<svg xmlns="http://www.w3.org/2000/svg" width="51.672" height="18.8" viewBox="0 0 51.672 18.8">
  <g id="Group_8284" data-name="Group 8284" opacity="0.9">
    <g id="Group_8138" data-name="Group 8138">
      <path id="Path_10162" data-name="Path 10162" d="M568.7,189.81c-.065-.181-1.629-4.392-6.131-3.842-.441-1.42-2.922-7.772-10.643-2.445-.613-1.893-4.1-11.175-11.846-4.66a11.263,11.263,0,0,0-1.481-4.522c-1.426-2.26-3.605-3.089-6.477-2.465a6.655,6.655,0,0,0-5.167,4.942,16.079,16.079,0,0,0-.313,6.809c-1.587.079-8.575.741-9.3,6.319l-.069.527h51.672Z" transform="translate(-517.267 -171.675)" fill="#fff"/>
    </g>
  </g>
</svg>
