<svg id="Group_8308" data-name="Group 8308" xmlns="http://www.w3.org/2000/svg" width="63.069" height="22.947" viewBox="0 0 63.069 22.947">
  <g id="Group_8138" data-name="Group 8138">
    <path id="Path_10162" data-name="Path 10162" d="M580.045,193.81c-.08-.22-1.988-5.361-7.484-4.689-.539-1.733-3.566-9.487-12.99-2.984-.748-2.31-5.009-13.641-14.459-5.688a13.747,13.747,0,0,0-1.808-5.52c-1.741-2.758-4.4-3.771-7.906-3.008a8.123,8.123,0,0,0-6.307,6.032,19.625,19.625,0,0,0-.383,8.311c-1.937.1-10.467.9-11.356,7.713l-.084.644h63.069Z" transform="translate(-517.267 -171.675)" fill="rgba(253,215,44,0.4)"/>
  </g>
</svg>
